<?xml version="1.0" standalone="no"?>
<!DOCTYPE svg PUBLIC "-//W3C//DTD SVG 20010904//EN"
 "http://www.w3.org/TR/2001/REC-SVG-20010904/DTD/svg10.dtd">
<svg version="1.0" xmlns="http://www.w3.org/2000/svg"
 width="900.000000pt" height="900.000000pt" viewBox="0 0 900.000000 900.000000"
 preserveAspectRatio="xMidYMid meet">
<metadata>
Created by potrace 1.14, written by Peter Selinger 2001-2017
</metadata>
<g transform="translate(0.000000,900.000000) scale(0.100000,-0.100000)"
fill="#000000" stroke="none">
<path d="M2377 7844 c-1 -1 -36 -5 -76 -8 -190 -18 -379 -74 -563 -168 -104
-53 -221 -125 -226 -139 -2 -5 -10 -9 -17 -9 -7 0 -15 -3 -17 -7 -1 -5 -25
-26 -53 -48 -157 -125 -310 -318 -405 -510 -81 -163 -121 -295 -147 -476 -12
-82 -8 -337 6 -399 35 -157 40 -176 74 -250 11 -25 26 -58 33 -75 21 -49 97
-152 159 -216 212 -217 547 -304 915 -238 96 18 103 20 195 50 50 17 94 34
100 40 5 5 15 9 22 9 30 0 231 134 282 187 38 41 39 47 -23 -229 -4 -17 14
-18 268 -18 l272 0 118 513 c65 281 131 563 146 625 l27 112 -26 1 c-36 1
-1251 1 -1277 0 -17 -1 -24 -10 -29 -38 -5 -21 -9 -43 -11 -49 -1 -7 -10 -45
-19 -85 -9 -41 -18 -81 -20 -89 -7 -33 -47 -206 -51 -221 -4 -14 21 -16 246
-15 151 1 250 -3 250 -8 0 -6 -25 -34 -56 -64 -108 -105 -287 -165 -472 -158
-198 6 -330 100 -391 278 -51 149 -45 357 15 542 90 274 320 474 605 525 62
11 216 6 281 -9 157 -36 280 -147 303 -272 l7 -37 332 0 331 1 -2 66 c-5 196
-29 305 -94 435 -36 72 -100 159 -148 202 -19 16 -40 36 -47 43 -7 6 -17 12
-22 12 -5 0 -15 7 -23 16 -28 34 -217 116 -324 140 -102 23 -219 36 -358 39
-48 0 -89 0 -90 -1z"/>
<path d="M4085 7766 c-3 -6 -13 -49 -24 -96 -10 -47 -49 -215 -86 -375 -37
-159 -81 -348 -97 -420 -17 -71 -43 -184 -58 -250 -27 -115 -43 -184 -144
-625 -25 -107 -70 -300 -99 -428 l-54 -233 786 4 c432 2 804 7 826 10 209 31
327 62 430 114 141 70 232 159 295 288 63 127 85 231 84 400 -1 80 -6 114 -26
172 -30 83 -97 176 -165 226 -49 36 -154 87 -179 87 -8 0 -14 5 -14 12 0 6 3
9 6 5 7 -6 98 24 164 54 253 118 411 432 354 706 -13 66 -58 159 -99 205 -41
47 -136 107 -204 130 -65 21 -76 22 -879 24 -604 1 -814 -1 -817 -10z m1282
-560 c56 -34 73 -105 48 -194 -21 -73 -68 -134 -125 -164 -44 -23 -51 -23
-383 -26 l-337 -2 5 22 c3 13 17 75 31 138 14 63 27 120 28 125 1 6 8 36 15
67 l12 57 337 -2 c312 -2 339 -3 369 -21z m-194 -856 c89 -34 120 -73 120
-154 0 -132 -117 -245 -281 -273 -41 -6 -641 -8 -648 -1 -6 7 96 442 105 448
5 3 152 4 328 4 301 -2 321 -3 376 -24z"/>
<path d="M6333 7768 c18 -46 224 -546 248 -603 16 -38 74 -178 128 -310 l98
-240 -31 -35 c-17 -20 -49 -58 -71 -84 -22 -26 -49 -58 -60 -70 -11 -13 -38
-44 -60 -71 -22 -27 -71 -85 -109 -129 -38 -45 -78 -92 -90 -106 -53 -63 -132
-156 -141 -166 -5 -6 -40 -47 -77 -90 -36 -43 -151 -178 -254 -299 l-187 -220
379 -3 379 -2 18 22 c11 13 31 37 45 53 15 17 43 50 62 75 34 44 65 82 85 104
6 6 41 49 80 96 38 47 74 90 80 96 5 6 55 66 109 133 55 67 103 118 106 114 6
-7 90 -276 188 -605 l26 -88 424 0 c399 0 424 1 419 18 -5 18 -310 787 -332
837 -36 82 -165 415 -165 426 0 7 26 42 58 78 31 36 80 93 107 126 27 33 52
62 55 65 3 3 27 32 55 65 47 57 81 96 115 134 8 9 31 37 51 61 20 25 47 56 59
70 12 14 79 92 148 174 70 83 162 191 205 240 44 50 88 104 99 119 l20 28
-380 -2 -381 -2 -23 -30 c-13 -17 -27 -35 -33 -41 -5 -6 -106 -131 -224 -279
-118 -147 -216 -266 -217 -264 -3 3 -84 273 -97 322 -2 11 -22 74 -42 140 -20
66 -38 127 -39 135 -3 13 -58 15 -421 18 -331 2 -416 -1 -412 -10z"/>
<path d="M6130 4744 c-52 -6 -111 -14 -130 -18 -19 -4 -48 -9 -65 -12 -97 -17
-357 -97 -452 -139 -322 -143 -573 -313 -784 -533 -57 -59 -115 -123 -129
-142 -14 -18 -30 -38 -35 -44 -20 -21 -103 -141 -135 -196 -144 -244 -251
-551 -275 -790 -4 -36 -9 -74 -11 -85 -5 -25 -5 -331 0 -365 2 -14 7 -50 11
-80 27 -218 132 -483 255 -650 66 -88 189 -213 253 -257 23 -15 44 -30 47 -33
9 -10 144 -86 183 -103 20 -9 52 -23 70 -31 101 -45 288 -90 428 -102 147 -14
407 -7 494 11 11 2 36 7 55 10 285 42 623 177 893 358 343 229 615 530 790
872 40 77 97 202 97 211 0 3 6 20 14 37 12 28 56 164 62 192 1 6 9 42 19 80 9
39 18 88 21 110 3 22 7 46 9 53 8 22 18 202 18 297 0 84 -10 213 -19 260 -3
11 -7 35 -10 54 -13 80 -69 243 -116 339 -187 384 -540 624 -1026 697 -106 16
-402 16 -532 -1z m193 -883 c257 -59 421 -245 473 -536 10 -57 12 -262 3 -304
-8 -39 -42 -193 -44 -201 -2 -6 -8 -20 -47 -117 -62 -151 -228 -359 -368 -460
-121 -87 -293 -166 -411 -189 -81 -15 -199 -18 -279 -7 -155 21 -241 63 -345
167 -139 140 -198 312 -190 561 8 254 85 472 241 680 59 79 139 163 193 203
20 15 38 29 41 32 12 12 90 60 138 84 87 44 207 83 292 95 72 11 242 6 303 -8z"/>
<path d="M4029 4712 c-8 -1 -36 -37 -64 -80 -46 -73 -189 -292 -382 -587 -102
-156 -352 -540 -470 -720 -94 -144 -240 -368 -379 -581 -51 -76 -169 -258
-264 -404 -169 -261 -361 -555 -592 -910 -65 -99 -118 -183 -118 -185 0 -3
138 -5 308 -4 l307 0 75 117 c72 113 175 271 385 592 55 85 134 207 175 270
41 63 111 170 155 237 44 67 119 182 166 255 83 127 199 305 354 543 39 61 96
148 127 195 30 47 102 157 160 245 333 508 649 995 653 1007 4 11 -46 13 -288
13 -161 0 -300 -1 -308 -3z"/>
<path d="M1194 4656 c-4 -12 -88 -364 -99 -416 -7 -35 -75 -324 -119 -510 -14
-58 -45 -195 -71 -305 -25 -110 -52 -227 -60 -260 -8 -33 -60 -256 -115 -495
-56 -239 -110 -471 -120 -515 -83 -351 -210 -899 -210 -907 0 -5 222 -8 494
-8 l494 0 12 53 c40 177 53 235 81 352 30 130 107 462 114 500 3 11 16 70 31
130 14 61 27 117 29 125 2 8 9 38 15 65 6 28 13 57 15 65 2 8 11 47 20 85 20
85 17 71 54 236 17 74 33 142 35 150 3 8 7 25 10 39 2 14 11 54 19 90 9 36 27
117 42 180 14 63 28 126 32 140 9 35 -1 -5 128 550 64 278 118 510 119 515 10
37 28 136 27 142 -2 13 -972 11 -977 -1z"/>
</g>
</svg>
